<svg xmlns="http://www.w3.org/2000/svg" xmlns:xlink="http://www.w3.org/1999/xlink" width="500" zoomAndPan="magnify" viewBox="0 0 375 374.999991" height="500" preserveAspectRatio="xMidYMid meet" version="1.0"><defs><clipPath id="60ba4ce6c3"><path d="M 67 37.5 L 307 37.5 L 307 337.5 L 67 337.5 Z M 67 37.5 " clip-rule="nonzero"/></clipPath></defs><g clip-path="url(#60ba4ce6c3)"><path fill="#ffffff" d="M 266.355469 106.601562 L 249.117188 106.601562 L 249.117188 99.484375 C 249.117188 65.375 221.386719 37.574219 187.203125 37.574219 C 153.019531 37.574219 125.292969 65.300781 125.292969 99.484375 L 125.292969 106.601562 L 108.054688 106.601562 C 85.828125 106.601562 67.78125 124.644531 67.78125 146.871094 L 67.78125 297.105469 C 67.78125 319.332031 85.828125 337.375 108.054688 337.375 L 266.355469 337.375 C 288.582031 337.375 306.625 319.332031 306.625 297.105469 L 306.625 146.945312 C 306.625 124.71875 288.582031 106.601562 266.355469 106.601562 Z M 147.371094 99.558594 C 147.371094 77.550781 165.269531 59.652344 187.277344 59.652344 C 209.285156 59.652344 227.183594 77.550781 227.183594 99.558594 L 227.183594 106.675781 L 147.371094 106.675781 Z M 187.203125 285.660156 C 155.074219 285.660156 128.960938 259.546875 128.960938 227.417969 L 147.296875 227.417969 C 147.296875 249.421875 165.199219 267.324219 187.203125 267.324219 C 209.210938 267.324219 227.109375 249.421875 227.109375 227.417969 L 245.449219 227.417969 C 245.519531 259.472656 219.40625 285.660156 187.203125 285.660156 Z M 187.203125 285.660156 " fill-opacity="1" fill-rule="nonzero"/></g></svg>