<svg xmlns="http://www.w3.org/2000/svg" xmlns:xlink="http://www.w3.org/1999/xlink" width="500" zoomAndPan="magnify" viewBox="0 0 375 374.999991" height="500" preserveAspectRatio="xMidYMid meet" version="1.0"><defs><clipPath id="262568c55e"><path d="M 69 37.5 L 305 37.5 L 305 332.25 L 69 332.25 Z M 69 37.5 " clip-rule="nonzero"/></clipPath></defs><g clip-path="url(#262568c55e)"><path fill="#000000" d="M 264.699219 105.386719 L 247.792969 105.386719 L 247.792969 98.394531 C 247.792969 64.886719 220.597656 37.570312 187.070312 37.570312 C 153.546875 37.570312 126.351562 64.8125 126.351562 98.394531 L 126.351562 105.386719 L 109.445312 105.386719 C 87.644531 105.386719 69.945312 123.113281 69.945312 144.949219 L 69.945312 292.542969 C 69.945312 314.378906 87.644531 332.105469 109.445312 332.105469 L 264.699219 332.105469 C 286.5 332.105469 304.195312 314.378906 304.195312 292.542969 L 304.195312 145.023438 C 304.195312 123.1875 286.5 105.386719 264.699219 105.386719 Z M 148.007812 98.46875 C 148.007812 76.847656 165.5625 59.265625 187.144531 59.265625 C 208.726562 59.265625 226.28125 76.847656 226.28125 98.46875 L 226.28125 105.457031 L 148.007812 105.457031 Z M 187.070312 281.300781 C 155.5625 281.300781 129.949219 255.644531 129.949219 224.078125 L 147.933594 224.078125 C 147.933594 245.699219 165.488281 263.28125 187.070312 263.28125 C 208.65625 263.28125 226.210938 245.699219 226.210938 224.078125 L 244.195312 224.078125 C 244.269531 255.570312 218.65625 281.300781 187.070312 281.300781 Z M 187.070312 281.300781 " fill-opacity="1" fill-rule="nonzero"/></g></svg>